<svg xmlns="http://www.w3.org/2000/svg" xmlns:xlink="http://www.w3.org/1999/xlink" preserveAspectRatio="xMidYMid" width="35" height="36" viewBox="0 0 35 36">
  <defs>
    <style>
      .cls-1 {
        fill: #558bcb;
        fill-rule: evenodd;
      }
    </style>
  </defs>
  <path d="M27.709,13.847 C25.589,13.847 23.697,12.974 22.365,11.603 L14.240,16.011 C14.442,16.645 14.584,17.304 14.584,18.000 C14.584,19.128 14.272,20.177 13.768,21.118 L21.577,25.355 C22.873,23.435 25.127,22.154 27.709,22.154 C31.736,22.154 35.000,25.253 35.000,29.077 C35.000,32.901 31.736,36.000 27.709,36.000 C23.681,36.000 20.416,32.901 20.416,29.077 C20.416,28.821 20.468,28.578 20.496,28.329 L11.667,23.538 L11.695,23.485 C10.468,24.374 8.954,24.923 7.292,24.923 C3.264,24.923 -0.000,21.824 -0.000,18.000 C-0.000,14.176 3.264,11.077 7.292,11.077 C9.411,11.077 11.303,11.950 12.636,13.321 L20.760,8.913 C20.558,8.279 20.416,7.619 20.416,6.923 C20.416,3.100 23.681,-0.000 27.709,-0.000 C31.736,-0.000 35.000,3.100 35.000,6.923 C35.000,10.747 31.736,13.847 27.709,13.847 ZM27.709,33.230 C30.125,33.230 32.083,31.371 32.083,29.077 C32.083,26.783 30.124,24.923 27.709,24.923 C25.292,24.923 23.333,26.783 23.333,29.077 C23.333,31.371 25.292,33.230 27.709,33.230 ZM7.292,13.847 C4.875,13.847 2.917,15.706 2.917,18.000 C2.917,20.294 4.875,22.154 7.292,22.154 C9.708,22.154 11.667,20.294 11.667,18.000 C11.667,15.706 9.708,13.847 7.292,13.847 ZM27.709,2.769 C25.292,2.769 23.333,4.629 23.333,6.923 C23.333,9.217 25.292,11.077 27.709,11.077 C30.125,11.077 32.083,9.217 32.083,6.923 C32.083,4.629 30.125,2.769 27.709,2.769 Z" class="cls-1"/>
</svg>
