<svg xmlns="http://www.w3.org/2000/svg" xmlns:xlink="http://www.w3.org/1999/xlink" preserveAspectRatio="xMidYMid" width="25" height="23.75" viewBox="0 0 40 38">
  <defs>
    <style>
      .cls-1 {
        fill: #558bcb;
        fill-rule: evenodd;
      }
    </style>
  </defs>
  <path d="M39.901,14.382 C39.669,13.676 39.028,13.181 38.183,13.059 L26.860,11.422 L21.797,1.218 C21.419,0.456 20.748,-0.000 20.000,-0.000 C19.253,-0.000 18.581,0.456 18.204,1.217 L13.140,11.422 L1.817,13.059 C0.971,13.181 0.329,13.676 0.098,14.383 C-0.133,15.089 0.095,15.866 0.706,16.458 L8.900,24.402 L6.966,35.619 C6.850,36.289 6.998,36.906 7.381,37.357 C7.727,37.767 8.243,38.001 8.795,38.001 C9.153,38.001 9.515,37.907 9.873,37.719 L20.000,32.424 L30.127,37.719 C31.035,38.195 32.047,38.031 32.619,37.357 C33.003,36.906 33.149,36.289 33.034,35.619 L31.100,24.402 L39.294,16.458 C39.906,15.864 40.131,15.088 39.901,14.382 ZM29.391,23.256 C29.016,23.621 28.844,24.145 28.933,24.661 L30.865,35.873 L20.743,30.579 C20.277,30.334 19.723,30.334 19.257,30.579 L9.134,35.873 L11.068,24.661 C11.157,24.145 10.985,23.621 10.609,23.256 L2.419,15.316 L13.737,13.680 C14.257,13.604 14.706,13.280 14.939,12.812 L20.000,2.611 L25.062,12.812 C25.295,13.280 25.744,13.604 26.263,13.680 L37.582,15.316 L29.391,23.256 Z" class="cls-1"/>
</svg>
