<svg xmlns="http://www.w3.org/2000/svg" xmlns:xlink="http://www.w3.org/1999/xlink" preserveAspectRatio="xMidYMid" width="24.999" height="24.999" viewBox="0 0 22 22">
  <defs>
    <style>
      .cls-1 {
        fill: #558bcb;
        fill-rule: evenodd;
      }
    </style>
  </defs>
  <path d="M4.807,15.609 C6.831,17.116 8.855,17.589 11.088,17.589 C13.332,17.589 15.752,16.698 17.270,15.422 C19.195,16.467 20.900,18.832 20.933,21.120 L1.100,21.120 C1.375,18.403 3.267,16.445 4.807,15.609 ZM17.138,14.410 C15.521,15.895 13.354,16.797 10.967,16.797 C8.580,16.797 6.413,15.895 4.796,14.421 C1.903,15.873 -0.000,18.469 -0.000,22.000 L22.000,22.000 C22.000,18.469 20.064,15.862 17.138,14.410 ZM3.817,11.198 L3.817,5.599 L3.575,5.610 C4.851,2.849 7.678,0.935 10.967,0.935 C14.245,0.935 17.072,2.849 18.348,5.610 L18.117,5.599 L18.117,11.198 C19.690,11.198 20.977,9.944 20.977,8.404 C20.977,7.348 20.383,6.435 19.503,5.951 C18.282,2.486 14.927,-0.000 10.967,-0.000 C7.007,-0.000 3.652,2.486 2.420,5.951 C1.540,6.435 0.957,7.348 0.957,8.404 C0.957,9.944 2.233,11.198 3.817,11.198 L3.817,11.198 ZM10.956,13.915 C8.096,13.915 5.786,11.649 5.786,8.855 C5.786,6.061 8.239,3.795 10.956,3.795 C13.805,3.795 16.115,6.061 16.115,8.855 C16.115,11.649 13.805,13.915 10.956,13.915 ZM10.967,2.805 C7.546,2.805 4.774,5.522 4.774,8.866 C4.774,12.221 7.546,14.938 10.967,14.938 C14.377,14.938 17.149,12.221 17.149,8.866 C17.149,5.522 14.377,2.805 10.967,2.805 Z" class="cls-1"/>
</svg>
